<svg viewBox="0 0 640 400" xmlns="http://www.w3.org/2000/svg" role="img" aria-label="Project Uzima">
<defs>
 <radialGradient id="t-uzima-g" cx="22%" cy="12%" r="110%"><stop offset="0" stop-color="#FFD3A8"/><stop offset=".5" stop-color="#F59A54"/><stop offset="1" stop-color="#E8693A"/></radialGradient>
 <filter id="t-uzima-grain" x="0" y="0" width="100%" height="100%"><feTurbulence type="fractalNoise" baseFrequency=".85" numOctaves="2" stitchTiles="stitch"/><feColorMatrix values="0 0 0 0 1  0 0 0 0 1  0 0 0 0 1  0 0 0 .9 -.35"/><feComposite in2="SourceGraphic" operator="in"/></filter>
 <filter id="t-uzima-glow" x="-50%" y="-50%" width="200%" height="200%"><feGaussianBlur stdDeviation="9" result="b"/><feMerge><feMergeNode in="b"/><feMergeNode in="SourceGraphic"/></feMerge></filter>
 <clipPath id="t-uzima-clip"><rect width="640" height="400" rx="14"/></clipPath>
</defs>
<g clip-path="url(#t-uzima-clip)">
 <rect width="640" height="400" fill="url(#t-uzima-g)"/>
 <rect width="640" height="400" fill="#fff" filter="url(#t-uzima-grain)" opacity=".35"/>
 <g fill="none" stroke="#fff" stroke-opacity=".22" stroke-width="1"><circle cx="440.0" cy="200.0" r="120" /><circle cx="380.0" cy="303.9" r="120" /><circle cx="260.0" cy="303.9" r="120" /><circle cx="200.0" cy="200.0" r="120" /><circle cx="260.0" cy="96.1" r="120" /><circle cx="380.0" cy="96.1" r="120" /><circle cx="320.0" cy="200.0" r="120"/><circle cx="320.0" cy="200.0" r="240"/></g>
 <circle cx="320.0" cy="200.0" r="62" fill="#fff" fill-opacity=".16"/>
 <g filter="url(#t-uzima-glow)" opacity=".96"><g transform="translate(278.0,158.0) scale(3.5)" fill="none" stroke="#fff" stroke-width="1.15" stroke-linecap="round" stroke-linejoin="round"><path d="M4 10v4M7.5 7v10M11 4v16M14.5 8v8M18 10.5v3M21 11.5v1"/></g></g>
</g></svg>